<svg xmlns="http://www.w3.org/2000/svg" style="display:none">

  <symbol id="icon-home" viewBox="0 0 24 24" fill="none" stroke="currentColor" stroke-width="1.8" stroke-linecap="round" stroke-linejoin="round">
    <path d="M4 11.5L12 4l8 7.5V20a1 1 0 01-1 1H5a1 1 0 01-1-1v-8.5z"/>
    <rect x="9" y="15" width="6" height="6" rx="0.5"/>
  </symbol>

  <symbol id="icon-search" viewBox="0 0 24 24" fill="none" stroke="currentColor" stroke-width="1.8" stroke-linecap="round" stroke-linejoin="round">
    <circle cx="10.5" cy="10.5" r="6.5"/>
    <path d="M19 19l-3.5-3.5"/>
  </symbol>

  <symbol id="icon-scan" viewBox="0 0 24 24" fill="none" stroke="currentColor" stroke-width="2" stroke-linecap="round" stroke-linejoin="round">
    <path d="M3 9V5a1 1 0 011-1h4"/>
    <path d="M21 9V5a1 1 0 00-1-1h-4"/>
    <path d="M3 15v4a1 1 0 001 1h4"/>
    <path d="M21 15v4a1 1 0 01-1 1h-4"/>
    <line x1="6" y1="12" x2="6" y2="12"/>
    <line x1="9" y1="12" x2="18" y2="12"/>
  </symbol>

  <symbol id="icon-login" viewBox="0 0 24 24" fill="none" stroke="currentColor" stroke-width="1.8" stroke-linecap="round" stroke-linejoin="round">
    <path d="M15 3h4a2 2 0 012 2v14a2 2 0 01-2 2h-4"/>
    <polyline points="10 17 15 12 10 7"/>
    <line x1="15" y1="12" x2="3" y2="12"/>
  </symbol>

  <symbol id="icon-logout" viewBox="0 0 24 24" fill="none" stroke="currentColor" stroke-width="1.8" stroke-linecap="round" stroke-linejoin="round">
    <path d="M9 21H5a2 2 0 01-2-2V5a2 2 0 012-2h4"/>
    <polyline points="16 17 21 12 16 7"/>
    <line x1="21" y1="12" x2="9" y2="12"/>
  </symbol>

</svg>